<svg width="160" height="160" viewBox="0 0 160 160" fill="none" xmlns="http://www.w3.org/2000/svg">
<path d="M62.0674 97.9997L72.0674 108L98.734 81.333" stroke="#3741D7" strokeWidth="10" strokeLinecap="round" strokeLinejoin="round"/>
<path d="M66.6673 40H93.334C106.667 40 106.667 33.3333 106.667 26.6667C106.667 13.3333 100.001 13.3333 93.334 13.3333H66.6673C60.0007 13.3333 53.334 13.3333 53.334 26.6667C53.334 40 60.0007 40 66.6673 40Z" stroke="#3741D7" strokeWidth="10" strokeMiterlimit="10" strokeLinecap="round" strokeLinejoin="round"/>
<path d="M106.667 26.8001C128.867 28.0001 140 36.2001 140 66.6668V106.667C140 133.333 133.333 146.667 100 146.667H60C26.6667 146.667 20 133.333 20 106.667V66.6668C20 36.2668 31.1333 28.0001 53.3333 26.8001" stroke="#3741D7" strokeWidth="10" strokeMiterlimit="10" strokeLinecap="round" strokeLinejoin="round"/>
</svg>
